PathFileType	4	(X/Y/Z)	/Users/itak/Documents/Research/Walk-IL/dataset/trc/00288_00010.trc
DataRate	CameraRate	NumFrames	NumMarkers	Units	OrigDataRate	OrigDataStartFrame	OrigNumFrames
100.000000	100.000000	4	53	mm	100.000000	0	669
Frame#	Time	RPSI			LPSI			L3			STRN			T10			C7			CLAV			RBAK			LBAK			LSHO			LUPA			LAEL			LAOL			LWTS			LWPS			LFRA			LHPS			LHTS			RSHO			RUPA			RAEL			RAOL			RWTS			RWPS			RFRA			RIFD			RHPS			RBHD			LFHD			RFHD			LBHD			RHIP			RASI			LASI			LKNE			LTHI			LANK			LTIP			LTOE			LMT1			LMT5			LHEE			RKNE			RTHI			RANK			RTIP			RTOE			RMT1			RMT5			RHEE			LIFD			RHTS			LHIP			
		X1	Y1	Z1	X2	Y2	Z2	X3	Y3	Z3	X4	Y4	Z4	X5	Y5	Z5	X6	Y6	Z6	X7	Y7	Z7	X8	Y8	Z8	X9	Y9	Z9	X10	Y10	Z10	X11	Y11	Z11	X12	Y12	Z12	X13	Y13	Z13	X14	Y14	Z14	X15	Y15	Z15	X16	Y16	Z16	X17	Y17	Z17	X18	Y18	Z18	X19	Y19	Z19	X20	Y20	Z20	X21	Y21	Z21	X22	Y22	Z22	X23	Y23	Z23	X24	Y24	Z24	X25	Y25	Z25	X26	Y26	Z26	X27	Y27	Z27	X28	Y28	Z28	X29	Y29	Z29	X30	Y30	Z30	X31	Y31	Z31	X32	Y32	Z32	X33	Y33	Z33	X34	Y34	Z34	X35	Y35	Z35	X36	Y36	Z36	X37	Y37	Z37	X38	Y38	Z38	X39	Y39	Z39	X40	Y40	Z40	X41	Y41	Z41	X42	Y42	Z42	X43	Y43	Z43	X44	Y44	Z44	X45	Y45	Z45	X46	Y46	Z46	X47	Y47	Z47	X48	Y48	Z48	X49	Y49	Z49	X50	Y50	Z50	X51	Y51	Z51	X52	Y52	Z52	X53	Y53	Z53	

1	0	361.8357238769531	1005.852905273438	1041.625610351562	353.5666198730469	996.722900390625	1215.568481445312	337.8667907714844	1072.536376953125	1133.697631835938	90.623291015625	1253.2578125	1135.514282226562	354.1125793457031	1183.206420898438	1140.451171875	317.753173828125	1428.088989257812	1165.054077148438	155.8591918945312	1352.524658203125	1145.473876953125	367.9269714355469	1292.853759765625	1084.037963867188	325.1472473144531	1388.416015625	1268.3037109375	231.0867767333984	1395.352783203125	1313.889770507812	254.5968017578125	1278.242797851562	1389.346435546875	249.5961456298828	1075.476928710938	1405.75439453125	312.9809875488281	1061.965087890625	1347.783935546875	174.295654296875	849.7806396484375	1355.189086914062	205.5586242675781	840.8446655273438	1419.238891601562	236.490966796875	970.2290649414062	1414.288330078125	205.8733062744141	751.5665893554688	1417.289672851562	152.9590911865234	750.8932495117188	1376.073364257812	257.6761169433594	1415.805419921875	1001.425842285156	264.3729248046875	1359.99072265625	931.27197265625	249.0220642089844	1092.230102539062	876.484130859375	290.5479125976562	1081.83349609375	961.1704711914062	142.9416046142578	872.4764404296875	941.3936157226562	173.4237976074219	866.493896484375	863.3237915039062	217.7946472167969	1026.264770507812	867.6591796875	127.8454742431641	687.3319702148438	943.4117431640625	144.3866577148438	754.9613647460938	870.5750732421875	315.9450073242188	1588.997924804688	1118.725708007812	113.7624130249023	1634.04248046875	1167.751831054688	147.5325164794922	1630.684448242188	1081.384765625	260.8769226074219	1582.903686523438	1252.882568359375	263.0024108886719	957.7435302734375	934.3230590820312	141.3260498046875	962.3739013671875	999.7623291015625	142.5419616699219	958.1326293945312	1250.80419921875	196.6136322021484	485.4114074707031	1280.529541015625	212.2496185302734	628.5149536132812	1302.598388671875	314.8610229492188	47.31539535522461	1277.500610351562	255.3544616699219	260.717529296875	1287.861694335938	110.8359298706055	37.98310089111328	1201.400024414062	185.3081970214844	31.62623023986816	1166.8125	190.016845703125	44.17800521850586	1278.451782226562	363.601806640625	41.31957244873047	1221.360473632812	222.6188812255859	483.3093872070312	966.7127685546875	203.9459381103516	747.39990234375	932.3478393554688	319.5086364746094	43.83420181274414	995.5723266601562	221.1122131347656	357.781005859375	979.5411376953125	121.8964614868164	44.42736434936523	1040.100952148438	177.8858032226562	39.71448135375977	1081.822631835938	215.5064849853516	38.37895202636719	971.5105590820312	370.1817932128906	35.66709518432617	1047.380859375	178.4654388427734	665.1286010742188	1360.669677734375	103.8993301391602	758.4177856445312	928.54833984375	280.229248046875	948.5772094726562	1306.730712890625	
2	0.01	361.8239440917969	1005.890747070312	1041.775390625	353.4413452148438	996.7775268554688	1215.731201171875	337.836181640625	1072.581665039062	1133.843139648438	90.48831939697266	1253.1748046875	1135.480590820312	354.0686340332031	1183.2685546875	1140.603393554688	317.5047912597656	1428.131103515625	1165.17529296875	155.6572875976562	1352.45751953125	1145.572265625	367.8316345214844	1292.921752929688	1084.190551757812	324.8816223144531	1388.45947265625	1268.412475585938	230.8434448242188	1395.333984375	1313.900512695312	254.2556610107422	1278.212036132812	1389.36865234375	249.3555145263672	1075.409423828125	1405.667846679688	312.8477172851562	1061.996948242188	1347.764892578125	174.0557098388672	849.8338623046875	1354.905029296875	205.2255249023438	840.7478637695312	1418.904907226562	236.1791229248047	970.1802368164062	1414.050537109375	205.4163818359375	751.4492797851562	1416.803344726562	152.5578308105469	751.053466796875	1375.765747070312	257.568603515625	1415.803955078125	1001.505493164062	264.3136596679688	1359.97705078125	931.3984985351562	249.2705230712891	1092.251831054688	876.6165771484375	290.6202697753906	1081.874755859375	961.3302001953125	143.1576843261719	872.4522094726562	941.3499145507812	173.7599639892578	866.5101318359375	863.307373046875	218.0321044921875	1026.27490234375	867.7203369140625	128.3410034179688	687.21435546875	943.2420654296875	144.7775726318359	755.0529174804688	870.5347900390625	315.736083984375	1589.001831054688	1118.789672851562	113.541877746582	1634.04736328125	1167.741577148438	147.3501892089844	1630.690551757812	1081.417846679688	260.5859680175781	1582.874389648438	1252.876586914062	263.0358581542969	957.7913208007812	934.4164428710938	141.3467407226562	962.375244140625	999.7888793945312	142.3610687255859	958.1470336914062	1250.8408203125	196.7212524414062	485.43212890625	1280.516357421875	212.2790374755859	628.5188598632812	1302.661499023438	314.8785095214844	47.27988815307617	1277.510620117188	255.4092712402344	260.7529296875	1287.88671875	110.9225692749023	38.09705352783203	1201.436157226562	185.3129730224609	31.65454483032227	1166.812744140625	190.0263214111328	44.18215942382812	1278.453125	363.6221618652344	41.28357696533203	1221.368530273438	222.6533813476562	483.365478515625	966.7272338867188	204.0711975097656	747.4323120117188	932.40673828125	319.4866333007812	43.68098068237305	995.483642578125	221.0876007080078	357.8175048828125	979.583984375	121.9844741821289	44.51446914672852	1040.1533203125	177.9492492675781	39.81103134155273	1081.7724609375	215.5404510498047	38.35320663452148	971.4541625976562	370.2531433105469	35.64078903198242	1047.306640625	178.1062927246094	665.1838989257812	1360.3134765625	104.1356506347656	758.3203125	928.4346923828125	280.0367736816406	948.6162109375	1306.83837890625	
3	0.02	361.7829895019531	1005.942016601562	1041.970825195312	353.2630615234375	996.8518676757812	1215.942016601562	337.7754821777344	1072.638305664062	1134.036010742188	90.29747009277344	1253.091552734375	1135.449829101562	353.97998046875	1183.34423828125	1140.80126953125	317.180419921875	1428.185546875	1165.326416015625	155.3835296630859	1352.382446289062	1145.683471679688	367.6797790527344	1293.005981445312	1084.387451171875	324.5347900390625	1388.515747070312	1268.551879882812	230.5158081054688	1395.326416015625	1313.934448242188	253.8253326416016	1278.177368164062	1389.396362304688	249.0505981445312	1075.331420898438	1405.54296875	312.6611022949219	1062.036254882812	1347.736206054688	173.7328186035156	849.9078369140625	1354.518188476562	204.7846069335938	840.646484375	1418.479614257812	235.8038330078125	970.1409301757812	1413.78662109375	204.8349609375	751.3385009765625	1416.193603515625	152.0648498535156	751.2488403320312	1375.322875976562	257.4071350097656	1415.80712890625	1001.61181640625	264.2275085449219	1359.961669921875	931.5640869140625	249.5805969238281	1092.289306640625	876.7800903320312	290.7067565917969	1081.93359375	961.5428466796875	143.41552734375	872.4442138671875	941.2699584960938	174.1936492919922	866.5471801757812	863.2811889648438	218.3660125732422	1026.296997070312	867.7982788085938	128.9538116455078	687.0927734375	943.0133666992188	145.2974243164062	755.1828002929688	870.4633178710938	315.4638366699219	1589.004638671875	1118.869140625	113.2502899169922	1634.049194335938	1167.727294921875	147.1116638183594	1630.69970703125	1081.446411132812	260.1893615722656	1582.840209960938	1252.854614257812	263.0639343261719	957.8565063476562	934.5366821289062	141.3690795898438	962.3677368164062	999.8238525390625	142.1580505371094	958.1477661132812	1250.886840820312	196.8395538330078	485.4527282714844	1280.502685546875	212.3060302734375	628.5191650390625	1302.739379882812	314.905029296875	47.23777770996094	1277.525756835938	255.4707641601562	260.797607421875	1287.921020507812	111.0352249145508	38.24727630615234	1201.485107421875	185.319580078125	31.68851470947266	1166.814453125	190.0399322509766	44.18877792358398	1278.455810546875	363.6481323242188	41.23529815673828	1221.376220703125	222.6859741210938	483.428955078125	966.7522583007812	204.1968841552734	747.4686889648438	932.4904174804688	319.4518432617188	43.47487640380859	995.3748779296875	221.0477294921875	357.8583984375	979.6446533203125	122.0867309570312	44.61879730224609	1040.219970703125	178.0233306884766	39.91702651977539	1081.721557617188	215.5796356201172	38.31897354125977	971.3920288085938	370.3389282226562	35.6085090637207	1047.2041015625	177.6305694580078	665.2691650390625	1359.815795898438	104.43603515625	758.2197875976562	928.2808227539062	279.7599487304688	948.6608276367188	1306.977661132812	
4	0.03	361.6989135742188	1006.006591796875	1042.208129882812	353.0294799804688	996.9459838867188	1216.194458007812	337.6743469238281	1072.703247070312	1134.273071289062	90.04740142822266	1253.012451171875	1135.427856445312	353.8348999023438	1183.429931640625	1141.039306640625	316.7837524414062	1428.250732421875	1165.50146484375	155.0413665771484	1352.30810546875	1145.793579101562	367.4644165039062	1293.102172851562	1084.621704101562	324.1141662597656	1388.583740234375	1268.717163085938	230.1065521240234	1395.336303710938	1313.99951171875	253.3242492675781	1278.144653320312	1389.430786132812	248.6923370361328	1075.250732421875	1405.38037109375	312.4193420410156	1062.081420898438	1347.6953125	173.3313598632812	850.0015869140625	1354.029418945312	204.2439727783203	840.552490234375	1417.974975585938	235.3821411132812	970.1156616210938	1413.511962890625	204.1452789306641	751.250732421875	1415.48583984375	151.4992523193359	751.466552734375	1374.73193359375	257.1844482421875	1415.816528320312	1001.744140625	264.1113586425781	1359.946655273438	931.7651977539062	249.9447784423828	1092.345703125	876.9672241210938	290.8023986816406	1082.01123046875	961.80712890625	143.6976928710938	872.46923828125	941.150634765625	174.7119445800781	866.61181640625	863.2418212890625	218.7987518310547	1026.333984375	867.888916015625	129.6403198242188	686.9929809570312	942.7333374023438	145.92431640625	755.34716796875	870.3549194335938	315.1321411132812	1589.003662109375	1118.960205078125	112.889892578125	1634.048461914062	1167.706787109375	146.8211822509766	1630.709350585938	1081.461791992188	259.6932678222656	1582.806030273438	1252.815673828125	263.0756530761719	957.9384155273438	934.6808471679688	141.3890075683594	962.345703125	999.866943359375	141.9518737792969	958.1254272460938	1250.942626953125	196.9548950195312	485.4703979492188	1280.491088867188	212.3235015869141	628.5130004882812	1302.828491210938	314.9407043457031	47.19113159179688	1277.546142578125	255.5330047607422	260.8473205566406	1287.962524414062	111.1685485839844	38.42898941040039	1201.545654296875	185.3280944824219	31.7256031036377	1166.818359375	190.057861328125	44.19814682006836	1278.459838867188	363.6782836914062	41.17697525024414	1221.3818359375	222.7107849121094	483.4953918457031	966.7931518554688	204.3019104003906	747.5054931640625	932.6002807617188	319.4067993164062	43.22719192504883	995.2486572265625	220.9922027587891	357.8995666503906	979.7232666015625	122.1949157714844	44.73350524902344	1040.298461914062	178.1036682128906	40.02168273925781	1081.67626953125	215.6209259033203	38.27854156494141	971.3310546875	370.4310913085938	35.57034301757812	1047.075317382812	177.0352478027344	665.38623046875	1359.16748046875	104.7902526855469	758.1347045898438	928.0804443359375	279.4053039550781	948.7073364257812	1307.144653320312	
